0
SECTION
2
HEADER
9
$INSUNITS
70
4
9
$ACADVER
1
AC1014
9
$HANDSEED
5
FFFF
0
ENDSEC
0
SECTION
2
TABLES
0
TABLE
2
VPORT
5
8
100
AcDbSymbolTable
0
ENDTAB
0
TABLE
2
LTYPE
5
5
100
AcDbSymbolTable
0
LTYPE
5
14
100
AcDbSymbolTableRecord
100
AcDbLinetypeTableRecord
2
BYBLOCK
70
0
0
LTYPE
5
15
100
AcDbSymbolTableRecord
100
AcDbLinetypeTableRecord
2
BYLAYER
70
0
0
ENDTAB
0
TABLE
2
LAYER
5
2
100
AcDbSymbolTable
70
2
0
LAYER
5
50
100
AcDbSymbolTableRecord
100
AcDbLayerTableRecord
2
0
70
0
6
CONTINUOUS
0
ENDTAB
0
TABLE
2
STYLE
5
3
100
AcDbSymbolTable
70
1
0
STYLE
5
11
100
AcDbSymbolTableRecord
100
AcDbTextStyleTableRecord
2
STANDARD
70
0
0
ENDTAB
0
TABLE
2
VIEW
5
6
100
AcDbSymbolTable
70
0
0
ENDTAB
0
TABLE
2
UCS
5
7
100
AcDbSymbolTable
70
0
0
ENDTAB
0
TABLE
2
APPID
5
9
100
AcDbSymbolTable
70
2
0
APPID
5
12
100
AcDbSymbolTableRecord
100
AcDbRegAppTableRecord
2
ACAD
70
0
0
ENDTAB
0
TABLE
2
DIMSTYLE
5
A
100
AcDbSymbolTable
70
1
0
ENDTAB
0
TABLE
2
BLOCK_RECORD
5
1
100
AcDbSymbolTable
70
1
0
BLOCK_RECORD
5
1F
100
AcDbSymbolTableRecord
100
AcDbBlockTableRecord
2
*MODEL_SPACE
0
BLOCK_RECORD
5
1B
100
AcDbSymbolTableRecord
100
AcDbBlockTableRecord
2
*PAPER_SPACE
0
ENDTAB
0
ENDSEC
0
SECTION
2
BLOCKS
0
BLOCK
5
20
100
AcDbEntity
100
AcDbBlockBegin
2
*MODEL_SPACE
0
ENDBLK
5
21
100
AcDbEntity
100
AcDbBlockEnd
0
BLOCK
5
1C
100
AcDbEntity
100
AcDbBlockBegin
2
*PAPER_SPACE
0
ENDBLK
5
1D
100
AcDbEntity
100
AcDbBlockEnd
0
ENDSEC
0
SECTION
2
ENTITIES
0
LWPOLYLINE
5
100
100
AcDbEntity
8
0
100
AcDbPolyline
90
8
70
1
43
0.0
10
-111.70407771223394
20
-1.1751651967259376
42
0.41421356237310014
10
-111.12484974689436
20
-1.580744984398579
10
-98.322348957735656
20
0.67668132527151115
42
0.41421356237309026
10
-97.916769170063006
20
1.2559092906110769
10
-100.1741954797331
20
14.058410079769788
42
0.41421356237308826
10
-100.75342344507266
20
14.463989867442425
10
-113.55592423423138
20
12.206563557772341
42
0.41421356237309176
10
-113.96150402190402
20
11.627335592432768
0
LWPOLYLINE
5
101
100
AcDbEntity
8
0
100
AcDbPolyline
90
8
70
1
43
0.0
10
-79.342746629021249
20
37.583146821764942
10
-56.029950936766333
20
41.693821698053604
42
-0.41421356237309925
10
-55.450722971426771
20
41.288241910380975
10
-53.19329666175669
20
28.485741121222262
42
-0.4142135623730967
10
-53.598876449429333
20
27.906513155882692
10
-76.911672141684235
20
23.795838279594015
42
-0.41421356237309759
10
-77.490900107023805
20
24.201418067266655
10
-79.748326416693885
20
37.003918856425358
42
-0.41421356237309248
0
LWPOLYLINE
5
102
100
AcDbEntity
8
0
100
AcDbPolyline
90
8
70
1
43
0.0
10
-26.324233855969233
20
-46.570010605013906
42
0.41421356237309509
10
-25.74500589062967
20
-46.975590392686549
10
-12.942505101470928
20
-44.718164083016475
42
0.41421356237309759
10
-12.536925313798282
20
-44.138936117676892
10
-14.79435162346838
20
-31.336435328518199
42
0.4142135623730871
10
-15.373579588807935
20
-30.93085554084556
10
-28.176080377966684
20
-33.188281850515644
42
0.41421356237309453
10
-28.581660165639331
20
-33.76750981585522
0
LWPOLYLINE
5
103
100
AcDbEntity
8
0
100
AcDbPolyline
90
8
70
1
43
0.0
10
-96.251487801906364
20
20.893420282711645
42
0.41421356237309853
10
-95.672259836566781
20
20.487840495039006
10
-82.869759047408081
20
22.745266804709093
42
0.41421356237309337
10
-82.464179259735459
20
23.324494770048663
10
-84.72160556940554
20
36.126995559207373
42
0.41421356237309415
10
-85.300833534745109
20
36.532575346880009
10
-98.103334323903809
20
34.275149037209914
42
0.41421356237309165
10
-98.508914111576459
20
33.695921071870345
0
LWPOLYLINE
5
104
100
AcDbEntity
8
0
100
AcDbPolyline
90
8
70
1
43
0.0
10
-44.671321827782428
20
-52.223081851429242
42
0.41421356237309509
10
-44.092093862442859
20
-52.628661639101885
10
-31.289593073284138
20
-50.371235329431805
42
0.41421356237309759
10
-30.884013285611491
20
-49.792007364092221
10
-33.141439595281568
20
-36.989506574933529
42
0.41421356237309853
10
-33.720667560621145
20
-36.5839267872609
10
-46.52316834977988
20
-38.841353096930973
42
0.41421356237309548
10
-46.928748137452516
20
-39.420581062270557
0
LWPOLYLINE
5
105
100
AcDbEntity
8
0
100
AcDbPolyline
90
8
70
1
43
0.0
10
-36.248227209634265
20
9.7117524796337911
42
0.41421356237309509
10
-35.668999244294696
20
9.3061726919611516
10
-22.866498455135961
20
11.563599001631237
42
0.41421356237309481
10
-22.460918667463314
20
12.142826966970814
10
-24.718344977133412
20
24.945327756129526
42
0.41421356237309803
10
-25.297572942472986
20
25.350907543802158
10
-38.100073731631717
20
23.093481234132071
42
0.41421356237309204
10
-38.50565351930436
20
22.514253268792501
0
LWPOLYLINE
5
106
100
AcDbEntity
8
0
100
AcDbPolyline
90
8
70
1
43
0.0
10
-123.84866983800647
20
-42.004338371046089
42
0.41421356237309925
10
-123.2694418726669
20
-42.409918158718732
10
-110.46694108350819
20
-40.152491849048644
42
0.41421356237309126
10
-110.06136129583555
20
-39.573263883709075
10
-112.31878760550565
20
-26.770763094550361
42
0.41421356237309415
10
-112.89801557084522
20
-26.365183306877729
10
-125.70051636000393
20
-28.622609616547816
42
0.41421356237309337
10
-126.10609614767655
20
-29.201837581887386
0
LWPOLYLINE
5
107
100
AcDbEntity
8
0
100
AcDbPolyline
90
8
70
1
43
0.0
10
-101.78008435856889
20
-57.456928281373642
42
0.41421356237309925
10
-101.20085639322932
20
-57.862508069046285
10
-88.398355604070616
20
-55.605081759376198
42
0.41421356237309415
10
-87.99277581639798
20
-55.025853794036621
10
-90.250202126068075
20
-42.223353004877929
42
0.41421356237308993
10
-90.82943009140763
20
-41.8177732172053
10
-103.63193088056634
20
-44.075199526875373
42
0.41421356237309592
10
-104.03751066823898
20
-44.65442749221495
0
LWPOLYLINE
5
108
100
AcDbEntity
8
0
100
AcDbPolyline
90
8
70
1
43
0.0
10
-54.595315181447468
20
4.0586812332184543
42
0.41421356237309692
10
-54.016087216107891
20
3.6531014455458166
10
-41.213586426949163
20
5.9105277552159006
42
0.41421356237309209
10
-40.808006639276527
20
6.4897557205554772
10
-43.065432948946622
20
19.292256509714186
42
0.41421356237309781
10
-43.644660914286192
20
19.697836297386825
10
-56.44716170344492
20
17.440409987716741
42
0.41421356237309315
10
-56.852741491117555
20
16.861182022377164
0
LWPOLYLINE
5
109
100
AcDbEntity
8
0
100
AcDbPolyline
90
8
70
1
43
0.0
10
-130.46466540711651
20
-4.4831629812809499
42
0.41421356237310009
10
-129.88543744177693
20
-4.8887427689535921
10
-117.08293665261822
20
-2.6313164592835032
42
0.41421356237309154
10
-116.67735686494558
20
-2.0520884939439332
10
-118.93478317461566
20
10.750412295214776
42
0.41421356237308826
10
-119.51401113995523
20
11.155992082887414
10
-132.31651192911394
20
8.8985657732173244
42
0.41421356237309082
10
-132.72209171678659
20
8.3193378078777549
0
LWPOLYLINE
5
110
100
AcDbEntity
8
0
100
AcDbPolyline
90
8
70
1
43
0.0
10
-29.632231640524232
20
-27.809422910131353
42
0.41421356237309509
10
-29.053003675184662
20
-28.215002697803993
10
-16.250502886025927
20
-25.957576388133905
42
0.41421356237309453
10
-15.844923098353281
20
-25.378348422794332
10
-18.102349408023379
20
-12.57584763363562
42
0.4142135623730987
10
-18.681577373362952
20
-12.170267845962979
10
-31.484078162521683
20
-14.427694155633064
42
0.41421356237309481
10
-31.88965795019433
20
-15.006922120972641
0
LWPOLYLINE
5
111
100
AcDbEntity
8
0
100
AcDbPolyline
90
8
70
1
43
0.0
10
-66.32640758415063
20
-39.115565402962019
42
0.41421356237309248
10
-65.74717961881106
20
-39.521145190634655
10
-52.944678829652347
20
-37.263718880964575
42
0.41421356237309853
10
-52.539099041979711
20
-36.684490915624998
10
-54.796525351649798
20
-23.881990126466292
42
0.41421356237309248
10
-55.375753316989361
20
-23.476410338793656
10
-68.178254106148088
20
-25.733836648463736
42
0.41421356237309204
10
-68.583833893820724
20
-26.313064613803313
0
LWPOLYLINE
5
112
100
AcDbEntity
8
0
100
AcDbPolyline
90
8
70
1
43
0.0
10
-108.3960799276789
20
-19.935752891608505
42
0.41421356237309792
10
-107.81685196233934
20
-20.341332679281145
10
-95.014351173180643
20
-18.083906369611057
42
0.41421356237308876
10
-94.608771385507993
20
-17.504678404271491
10
-96.866197695178073
20
-4.7021776151127863
42
0.41421356237310014
10
-97.445425660517657
20
-4.2965978274401451
10
-110.24792644967636
20
-6.5540241371102317
42
0.4142135623730917
10
-110.65350623734901
20
-7.133252102449803
0
LWPOLYLINE
5
113
100
AcDbEntity
8
0
100
AcDbPolyline
90
8
70
1
43
0.0
10
-105.08808214312388
20
-38.696340586491075
42
0.41421356237309415
10
-104.50885417778431
20
-39.101920374163711
10
-91.706353388625615
20
-36.844494064493631
42
0.41421356237309337
10
-91.300773600952994
20
-36.265266099154061
10
-93.558199910623074
20
-23.462765309995351
42
0.41421356237309415
10
-94.137427875962643
20
-23.057185522322715
10
-106.93992866512134
20
-25.314611831992799
42
0.41421356237309204
10
-107.34550845279399
20
-25.893839797332376
0
LWPOLYLINE
5
114
100
AcDbEntity
8
0
100
AcDbPolyline
90
8
70
1
43
0.0
10
-82.192497217547569
20
-58.839077420539276
42
0.41421356237309925
10
-81.613269252207999
20
-59.244657208211919
10
-68.8107684630493
20
-56.987230898541831
42
0.4142135623731002
10
-68.40518867537665
20
-56.408002933202255
10
-70.662614985046744
20
-43.605502144043562
42
0.41421356237309592
10
-71.2418429503863
20
-43.199922356370934
10
-84.044343739545013
20
-45.457348666041007
42
0.41421356237308393
10
-84.449923527217663
20
-46.036576631380569
0
LWPOLYLINE
5
115
100
AcDbEntity
8
0
100
AcDbPolyline
90
8
70
1
43
0.0
10
-47.979319612337441
20
-33.46249415654669
42
0.41421356237309248
10
-47.400091646997879
20
-33.868073944219333
10
-34.597590857839137
20
-31.610647634549245
42
0.41421356237309714
10
-34.192011070166487
20
-31.031419669209669
10
-36.449437379836588
20
-18.228918880050959
42
0.4142135623731002
10
-37.028665345176165
20
-17.823339092378315
10
-49.831166134334893
20
-20.080765402048399
42
0.41421356237309293
10
-50.236745922007529
20
-20.659993367387976
0
LWPOLYLINE
5
116
100
AcDbEntity
8
0
100
AcDbPolyline
90
8
70
1
43
0.0
10
-88.808492786657581
20
-21.317902030774142
42
0.41421356237309415
10
-88.229264821318026
20
-21.723481818446775
10
-75.426764032159326
20
-19.466055508776684
42
0.41421356237309742
10
-75.021184244486676
20
-18.886827543437118
10
-77.278610554156757
20
-6.0843267542784139
42
0.41421356237309315
10
-77.857838519496326
20
-5.6787469666057744
10
-90.66033930865504
20
-7.936173276275861
42
0.4142135623730917
10
-91.06591909632769
20
-8.5154012416154323
0
LWPOLYLINE
5
117
100
AcDbEntity
8
0
100
AcDbPolyline
90
8
70
1
43
0.0
10
-115.01207549678895
20
17.585422498156632
42
0.41421356237309853
10
-114.43284753144937
20
17.179842710483992
10
-101.63034674229066
20
19.437269020154083
42
0.41421356237309065
10
-101.22476695461802
20
20.016496985493646
10
-103.48219326428811
20
32.81899777465236
42
0.41421356237309415
10
-104.06142122962768
20
33.224577562324995
10
-116.8639220187864
20
30.967151252654908
42
0.41421356237309381
10
-117.26950180645902
20
30.387923287315335
0
LWPOLYLINE
5
118
100
AcDbEntity
8
0
100
AcDbPolyline
90
8
70
1
43
0.0
10
-32.148050409564135
20
52.32672887244906
10
-21.903910612676775
20
60.330328051682585
42
-0.41421356237307061
10
-21.202074498210596
20
60.244153412542047
10
-13.198475318977035
20
50.000013615654638
42
-0.41421356237310086
10
-13.284649958117576
20
49.298177501188448
10
-23.528789755004954
20
41.29457832195488
42
-0.41421356237306767
10
-24.230625869471119
20
41.380752961095425
10
-32.234225048704666
20
51.624892757982892
42
-0.4142135623731078
0
LWPOLYLINE
5
119
100
AcDbEntity
8
0
100
AcDbPolyline
90
8
70
1
43
0.0
10
-49.698884099377985
20
43.629423076608624
10
-37.822793150024225
20
48.916999436593976
42
-0.41421356237311618
10
-37.162652099665017
20
48.663595029310578
10
-31.875075739679648
20
36.787504079956747
42
-0.41421356237309792
10
-32.128480146963064
20
36.127363029597547
10
-44.004571096316809
20
30.839786669612156
42
-0.41421356237309714
10
-44.664712146676003
20
31.093191076895558
10
-49.952288506661382
20
42.969282026249438
42
-0.41421356237312407
0
LWPOLYLINE
5
120
100
AcDbEntity
8
0
100
AcDbPolyline
90
8
70
1
43
0.0
10
-51.287317396892448
20
-14.701906461664107
42
0.41421356237309531
10
-50.708089431552885
20
-15.107486249336748
10
-37.905588642394157
20
-12.850059939666668
42
0.41421356237309481
10
-37.500008854721507
20
-12.270831974327089
10
-39.757435164391602
20
0.53166881483161521
42
0.41421356237309814
10
-40.336663129731178
20
0.93724860250425479
10
-53.139163918889906
20
-1.3201777071658287
42
0.41421356237309309
10
-53.544743706562542
20
-1.8994056725054054
0
LWPOLYLINE
5
121
100
AcDbEntity
8
0
100
AcDbPolyline
90
8
70
1
43
0.0
10
-63.018409799595617
20
-57.876153097844572
42
0.41421356237309509
10
-62.439181834256054
20
-58.281732885517215
10
-49.636681045097333
20
-56.024306575847127
42
0.41421356237309082
10
-49.231101257424697
20
-55.445078610507572
10
-51.488527567094778
20
-42.642577821348866
42
0.41421356237309592
10
-52.067755532434347
20
-42.23699803367623
10
-64.870256321593075
20
-44.494424343346296
42
0.41421356237309509
10
-65.275836109265711
20
-45.07365230868588
0
LWPOLYLINE
5
122
100
AcDbEntity
8
0
100
AcDbPolyline
90
8
70
1
43
0.0
10
-120.54067205345146
20
-60.764926065928655
42
0.41421356237309925
10
-119.96144408811189
20
-61.170505853601298
10
-107.15894329895319
20
-58.913079543931211
42
0.41421356237309415
10
-106.75336351128054
20
-58.333851578591634
10
-109.01078982095065
20
-45.531350789432949
42
0.4142135623730881
10
-109.59001778629019
20
-45.125771001760299
10
-122.39251857544892
20
-47.383197311430393
42
0.41421356237308571
10
-122.79809836312154
20
-47.962425276769949
0
LWPOLYLINE
5
123
100
AcDbEntity
8
0
100
AcDbPolyline
90
8
70
1
43
0.0
10
-32.940229425079252
20
-9.0488352152487774
42
0.41421356237309587
10
-32.361001459739683
20
-9.4544150029214151
10
-19.558500670580944
20
-7.1969886932513312
42
0.41421356237309481
10
-19.152920882908298
20
-6.6177607279117536
10
-21.410347192578392
20
6.1847400612469503
42
0.4142135623730982
10
-21.989575157917969
20
6.5903198489195898
10
-34.792075947076697
20
4.3328935392495049
42
0.41421356237309481
10
-35.197655734749347
20
3.7536655739099265
0
LWPOLYLINE
5
124
100
AcDbEntity
8
0
100
AcDbPolyline
90
8
70
1
43
0.0
10
-133.77266319167151
20
14.277424713601619
42
0.41421356237309853
10
-133.19343522633193
20
13.871844925928979
10
-120.39093443717321
20
16.129271235599067
42
0.41421356237309209
10
-119.98535464950059
20
16.708499200938636
10
-122.24278095917069
20
29.510999990097346
42
0.41421356237309415
10
-122.82200892451024
20
29.916579777769982
10
-135.62450971366897
20
27.659153468099895
42
0.41421356237309165
10
-136.03008950134159
20
27.079925502760322
0
LWPOLYLINE
5
125
100
AcDbEntity
8
0
100
AcDbPolyline
90
8
70
1
43
0.0
10
-92.116490571212623
20
-2.5573143358915691
42
0.41421356237310009
10
-91.537262605873039
20
-2.9628941235642108
10
-78.734761816714339
20
-0.70546781389412117
42
0.41421356237309614
10
-78.329182029041689
20
-0.12623984855455461
10
-80.586608338711798
20
12.676260940604161
42
0.41421356237308538
10
-81.165836304051339
20
13.081840728276795
10
-93.968337093210067
20
10.824414418606711
42
0.41421356237309359
10
-94.373916880882689
20
10.245186453267138
0
LWPOLYLINE
5
126
100
AcDbEntity
8
0
100
AcDbPolyline
90
8
70
1
43
0.0
10
-127.15666762256149
20
-23.243750676163522
42
0.41421356237309415
10
-126.57743965722192
20
-23.649330463836158
10
-113.7749388680632
20
-21.39190415416607
42
0.41421356237309165
10
-113.36935908039055
20
-20.812676188826501
10
-115.62678539006065
20
-8.0101753996677996
42
0.41421356237310042
10
-116.20601335540023
20
-7.6045956119951574
10
-129.00851414455894
20
-9.8620219216652458
42
0.41421356237309209
10
-129.41409393223157
20
-10.441249887004814
0
LWPOLYLINE
5
127
100
AcDbEntity
8
0
100
AcDbPolyline
90
8
70
1
43
0.0
10
-69.634405368705643
20
-20.354977708079446
42
0.41421356237309248
10
-69.055177403366073
20
-20.760557495752082
10
-56.25267661420736
20
-18.503131186081994
42
0.41421356237309825
10
-55.847096826534724
20
-17.923903220742424
10
-58.104523136204804
20
-5.1214024315837223
42
0.41421356237309315
10
-58.683751101544374
20
-4.7158226439110829
10
-71.486251890703102
20
-6.973248953581165
42
0.41421356237309209
10
-71.891831678375738
20
-7.5524769189207408
0
LWPOLYLINE
5
128
100
AcDbEntity
8
0
100
AcDbPolyline
90
8
70
1
43
0.0
10
-85.500495002102568
20
-40.078489725656716
42
0.41421356237309709
10
-84.921267036762998
20
-40.484069513329352
10
-72.118766247604313
20
-38.226643203659265
42
0.41421356237309509
10
-71.713186459931663
20
-37.647415238319702
10
-73.970612769601757
20
-24.844914449160981
42
0.41421356237309298
10
-74.549840734941327
20
-24.439334661488346
10
-87.352341524100027
20
-26.696760971158426
42
0.41421356237309204
10
-87.757921311772677
20
-27.275988936497999
0
LWPOLYLINE
5
129
100
AcDbEntity
8
0
100
AcDbPolyline
90
8
70
1
43
0.0
10
-72.942403153260656
20
-1.594390013196878
42
0.41421356237309692
10
-72.363175187921073
20
-1.9999698008695155
10
-59.560674398762366
20
0.25745650880057247
42
0.41421356237309837
10
-59.155094611089737
20
0.83668447414014135
10
-61.41252092075981
20
13.639185263298849
42
0.41421356237309759
10
-61.991748886099387
20
14.044765050971488
10
-74.794249675258101
20
11.787338741301408
42
0.41421356237309226
10
-75.199829462930751
20
11.208110775961831
0
LWPOLYLINE
5
130
100
AcDbEntity
8
0
100
AcDbPolyline
90
8
70
1
43
0.0
10
111.12484974689436
20
-1.580744984398579
42
0.41421356237308865
10
111.70407771223394
20
-1.175165196725938
10
113.96150402190402
20
11.627335592432765
42
0.41421356237307494
10
113.55592423423138
20
12.206563557772341
10
100.75342344507268
20
14.463989867442425
42
0.41421356237308943
10
100.1741954797331
20
14.058410079769788
10
97.91676917006302
20
1.2559092906110827
42
0.41421356237309553
10
98.322348957735656
20
0.67668132527151037
0
LWPOLYLINE
5
131
100
AcDbEntity
8
0
100
AcDbPolyline
90
8
70
1
43
0.0
10
56.029950936766333
20
41.693821698053611
10
79.342746629021249
20
37.583146821764942
42
-0.41421356237309509
10
79.748326416693885
20
37.003918856425358
10
77.490900107023791
20
24.201418067266655
42
-0.41421356237309548
10
76.911672141684235
20
23.795838279594015
10
53.598876449429333
20
27.906513155882692
42
-0.41421356237309759
10
53.19329666175669
20
28.485741121222262
10
55.450722971426771
20
41.288241910380975
42
-0.41421356237309509
0
LWPOLYLINE
5
132
100
AcDbEntity
8
0
100
AcDbPolyline
90
8
70
1
43
0.0
10
25.74500589062967
20
-46.975590392686549
42
0.4142135623731083
10
26.324233855969233
20
-46.570010605013898
10
28.581660165639327
20
-33.76750981585522
42
0.41421356237311135
10
28.17608037796667
20
-33.188281850515644
10
15.373579588807949
20
-30.93085554084556
42
0.41421356237309492
10
14.794351623468369
20
-31.336435328518199
10
12.536925313798283
20
-44.138936117676892
42
0.4142135623730937
10
12.942505101470925
20
-44.718164083016475
0
LWPOLYLINE
5
133
100
AcDbEntity
8
0
100
AcDbPolyline
90
8
70
1
43
0.0
10
95.672259836566781
20
20.487840495039006
42
0.41421356237308943
10
96.251487801906364
20
20.893420282711645
10
98.508914111576459
20
33.695921071870345
42
0.41421356237307405
10
98.103334323903809
20
34.275149037209921
10
85.300833534745109
20
36.532575346880009
42
0.4142135623730967
10
84.72160556940554
20
36.126995559207366
10
82.464179259735459
20
23.324494770048666
42
0.41421356237309165
10
82.86975904740811
20
22.745266804709097
0
LWPOLYLINE
5
134
100
AcDbEntity
8
0
100
AcDbPolyline
90
8
70
1
43
0.0
10
44.092093862442859
20
-52.628661639101885
42
0.41421356237310536
10
44.671321827782428
20
-52.223081851429242
10
46.928748137452523
20
-39.420581062270557
42
0.41421356237309415
10
46.52316834977988
20
-38.84135309693098
10
33.720667560621138
20
-36.583926787260893
42
0.41421356237307833
10
33.141439595281582
20
-36.989506574933529
10
30.884013285611495
20
-49.792007364092221
42
0.41421356237308943
10
31.289593073284134
20
-50.371235329431805
0
LWPOLYLINE
5
135
100
AcDbEntity
8
0
100
AcDbPolyline
90
8
70
1
43
0.0
10
35.668999244294696
20
9.3061726919611516
42
0.41421356237309509
10
36.248227209634265
20
9.7117524796337911
10
38.50565351930436
20
22.514253268792498
42
0.41421356237310114
10
38.100073731631724
20
23.093481234132078
10
25.297572942472982
20
25.350907543802165
42
0.41421356237309592
10
24.718344977133402
20
24.945327756129526
10
22.460918667463318
20
12.142826966970814
42
0.41421356237309992
10
22.866498455135957
20
11.563599001631237
0
LWPOLYLINE
5
136
100
AcDbEntity
8
0
100
AcDbPolyline
90
8
70
1
43
0.0
10
123.2694418726669
20
-42.409918158718732
42
0.41421356237311135
10
123.84866983800647
20
-42.004338371046089
10
126.10609614767657
20
-29.201837581887389
42
0.41421356237308432
10
125.70051636000392
20
-28.622609616547813
10
112.89801557084522
20
-26.365183306877729
42
0.4142135623730967
10
112.31878760550565
20
-26.770763094550368
10
110.06136129583554
20
-39.573263883709068
42
0.41421356237308132
10
110.4669410835082
20
-40.152491849048637
0
LWPOLYLINE
5
137
100
AcDbEntity
8
0
100
AcDbPolyline
90
8
70
1
43
0.0
10
101.20085639322932
20
-57.862508069046285
42
0.41421356237310536
10
101.78008435856889
20
-57.456928281373642
10
104.03751066823899
20
-44.65442749221495
42
0.41421356237309681
10
103.63193088056633
20
-44.075199526875366
10
90.829430091407644
20
-41.817773217205286
42
0.41421356237310197
10
90.250202126068061
20
-42.223353004877922
10
87.992775816397995
20
-55.025853794036621
42
0.41421356237308482
10
88.398355604070616
20
-55.605081759376205
0
LWPOLYLINE
5
138
100
AcDbEntity
8
0
100
AcDbPolyline
90
8
70
1
43
0.0
10
54.016087216107891
20
3.6531014455458166
42
0.41421356237309659
10
54.595315181447468
20
4.0586812332184552
10
56.852741491117563
20
16.861182022377157
42
0.41421356237309803
10
56.447161703444912
20
17.440409987716741
10
43.644660914286192
20
19.697836297386825
42
0.41421356237309548
10
43.065432948946608
20
19.292256509714186
10
40.808006639276527
20
6.4897557205554808
42
0.4142135623730932
10
41.213586426949163
20
5.9105277552158997
0
LWPOLYLINE
5
139
100
AcDbEntity
8
0
100
AcDbPolyline
90
8
70
1
43
0.0
10
129.88543744177693
20
-4.8887427689535921
42
0.4142135623730881
10
130.46466540711651
20
-4.4831629812809499
10
132.72209171678659
20
8.3193378078777513
42
0.41421356237307466
10
132.31651192911394
20
8.8985657732173262
10
119.51401113995524
20
11.155992082887414
42
0.41421356237308943
10
118.93478317461566
20
10.750412295214776
10
116.67735686494558
20
-2.0520884939439288
42
0.41421356237307461
10
117.08293665261822
20
-2.6313164592835037
0
LWPOLYLINE
5
140
100
AcDbEntity
8
0
100
AcDbPolyline
90
8
70
1
43
0.0
10
29.053003675184662
20
-28.215002697803993
42
0.41421356237308432
10
29.632231640524228
20
-27.809422910131353
10
31.889657950194326
20
-15.006922120972641
42
0.41421356237309914
10
31.484078162521687
20
-14.427694155633063
10
18.681577373362945
20
-12.170267845962981
42
0.41421356237309231
10
18.102349408023368
20
-12.575847633635618
10
15.844923098353282
20
-25.378348422794332
42
0.41421356237310086
10
16.250502886025942
20
-25.957576388133909
0
LWPOLYLINE
5
141
100
AcDbEntity
8
0
100
AcDbPolyline
90
8
70
1
43
0.0
10
65.74717961881106
20
-39.521145190634655
42
0.41421356237308943
10
66.32640758415063
20
-39.115565402962019
10
68.583833893820724
20
-26.313064613803316
42
0.41421356237309204
10
68.178254106148074
20
-25.733836648463733
10
55.375753316989361
20
-23.476410338793656
42
0.41421356237308132
10
54.796525351649805
20
-23.881990126466292
10
52.539099041979696
20
-36.684490915625005
42
0.41421356237309759
10
52.944678829652347
20
-37.263718880964575
0
LWPOLYLINE
5
142
100
AcDbEntity
8
0
100
AcDbPolyline
90
8
70
1
43
0.0
10
107.81685196233934
20
-20.341332679281145
42
0.41421356237310103
10
108.3960799276789
20
-19.935752891608505
10
110.65350623734901
20
-7.1332521024498075
42
0.41421356237307494
10
110.24792644967636
20
-6.5540241371102308
10
97.445425660517657
20
-4.2965978274401442
42
0.41421356237308721
10
96.866197695178073
20
-4.7021776151127836
10
94.608771385508007
20
-17.504678404271484
42
0.41421356237309803
10
95.014351173180643
20
-18.083906369611057
0
LWPOLYLINE
5
143
100
AcDbEntity
8
0
100
AcDbPolyline
90
8
70
1
43
0.0
10
104.50885417778431
20
-39.101920374163711
42
0.41421356237309415
10
105.08808214312388
20
-38.696340586491075
10
107.34550845279399
20
-25.89383979733238
42
0.41421356237307616
10
106.93992866512134
20
-25.314611831992799
10
94.137427875962643
20
-23.057185522322715
42
0.41421356237309925
10
93.558199910623074
20
-23.462765309995358
10
91.300773600952994
20
-36.265266099154054
42
0.4142135623731083
10
91.706353388625644
20
-36.844494064493631
0
LWPOLYLINE
5
144
100
AcDbEntity
8
0
100
AcDbPolyline
90
8
70
1
43
0.0
10
81.613269252207999
20
-59.244657208211919
42
0.41421356237310536
10
82.192497217547569
20
-58.839077420539276
10
84.449923527217663
20
-46.036576631380584
42
0.41421356237308654
10
84.044343739545013
20
-45.457348666041
10
71.2418429503863
20
-43.199922356370919
42
0.4142135623731002
10
70.662614985046744
20
-43.605502144043555
10
68.40518867537665
20
-56.408002933202262
42
0.41421356237310442
10
68.8107684630493
20
-56.987230898541824
0
LWPOLYLINE
5
145
100
AcDbEntity
8
0
100
AcDbPolyline
90
8
70
1
43
0.0
10
47.400091646997879
20
-33.868073944219333
42
0.41421356237307616
10
47.979319612337441
20
-33.46249415654669
10
50.236745922007543
20
-20.65999336738798
42
0.41421356237309975
10
49.831166134334886
20
-20.080765402048399
10
37.028665345176158
20
-17.823339092378319
42
0.41421356237309209
10
36.449437379836581
20
-18.228918880050951
10
34.192011070166494
20
-31.031419669209672
42
0.41421356237310319
10
34.597590857839151
20
-31.610647634549252
0
LWPOLYLINE
5
146
100
AcDbEntity
8
0
100
AcDbPolyline
90
8
70
1
43
0.0
10
88.229264821318026
20
-21.723481818446775
42
0.41421356237310319
10
88.808492786657581
20
-21.317902030774142
10
91.06591909632769
20
-8.5154012416154359
42
0.41421356237307494
10
90.66033930865504
20
-7.9361732762758592
10
77.857838519496326
20
-5.6787469666057744
42
0.41421356237310269
10
77.278610554156757
20
-6.084326754278413
10
75.021184244486676
20
-18.886827543437121
42
0.41421356237310369
10
75.426764032159326
20
-19.466055508776684
0
LWPOLYLINE
5
147
100
AcDbEntity
8
0
100
AcDbPolyline
90
8
70
1
43
0.0
10
114.43284753144937
20
17.179842710483992
42
0.41421356237308943
10
115.01207549678895
20
17.585422498156632
10
117.26950180645903
20
30.387923287315331
42
0.41421356237308649
10
116.86392201878638
20
30.967151252654908
10
104.06142122962768
20
33.224577562324995
42
0.41421356237309925
10
103.48219326428811
20
32.818997774652352
10
101.22476695461802
20
20.016496985493653
42
0.41421356237310597
10
101.63034674229067
20
19.437269020154083
0
LWPOLYLINE
5
148
100
AcDbEntity
8
0
100
AcDbPolyline
90
8
70
1
43
0.0
10
21.903910612676771
20
60.330328051682578
10
32.148050409564149
20
52.326728872449081
42
-0.4142135623730927
10
32.234225048704687
20
51.624892757982892
10
24.230625869471119
20
41.380752961095418
42
-0.4142135623730846
10
23.528789755004944
20
41.294578321954901
10
13.284649958117566
20
49.298177501188462
42
-0.4142135623730846
10
13.198475318977039
20
50.000013615654638
10
21.2020744982106
20
60.24415341254204
42
-0.41421356237308682
0
LWPOLYLINE
5
149
100
AcDbEntity
8
0
100
AcDbPolyline
90
8
70
1
43
0.0
10
37.822793150024232
20
48.916999436593983
10
49.698884099377992
20
43.629423076608632
42
-0.4142135623730977
10
49.95228850666139
20
42.969282026249438
10
44.66471214667601
20
31.093191076895561
42
-0.41421356237309132
10
44.004571096316809
20
30.83978666961216
10
32.128480146963057
20
36.127363029597547
42
-0.41421356237309509
10
31.875075739679652
20
36.787504079956747
10
37.162652099665003
20
48.663595029310585
42
-0.41421356237310025
0
LWPOLYLINE
5
150
100
AcDbEntity
8
0
100
AcDbPolyline
90
8
70
1
43
0.0
10
50.708089431552885
20
-15.107486249336748
42
0.41421356237309531
10
51.287317396892448
20
-14.701906461664107
10
53.544743706562549
20
-1.8994056725054096
42
0.41421356237309337
10
53.139163918889906
20
-1.3201777071658283
10
40.336663129731171
20
0.93724860250425479
42
0.41421356237309348
10
39.757435164391595
20
0.53166881483161621
10
37.500008854721514
20
-12.270831974327089
42
0.41421356237309975
10
37.90558864239415
20
-12.850059939666664
0
LWPOLYLINE
5
151
100
AcDbEntity
8
0
100
AcDbPolyline
90
8
70
1
43
0.0
10
62.439181834256054
20
-58.281732885517215
42
0.41421356237310536
10
63.018409799595617
20
-57.876153097844572
10
65.275836109265711
20
-45.07365230868588
42
0.41421356237308393
10
64.870256321593061
20
-44.494424343346296
10
52.067755532434347
20
-42.236998033676223
42
0.41421356237310947
10
51.488527567094792
20
-42.642577821348873
10
49.23110125742469
20
-55.445078610507565
42
0.41421356237310619
10
49.636681045097333
20
-56.024306575847135
0
LWPOLYLINE
5
152
100
AcDbEntity
8
0
100
AcDbPolyline
90
8
70
1
43
0.0
10
119.96144408811189
20
-61.170505853601298
42
0.41421356237310536
10
120.54067205345146
20
-60.764926065928655
10
122.79809836312155
20
-47.962425276769963
42
0.41421356237307461
10
122.39251857544892
20
-47.383197311430379
10
109.59001778629022
20
-45.125771001760306
42
0.41421356237310197
10
109.01078982095063
20
-45.531350789432935
10
106.75336351128054
20
-58.333851578591634
42
0.41421356237307272
10
107.15894329895319
20
-58.913079543931204
0
LWPOLYLINE
5
153
100
AcDbEntity
8
0
100
AcDbPolyline
90
8
70
1
43
0.0
10
32.361001459739683
20
-9.4544150029214151
42
0.41421356237308926
10
32.940229425079252
20
-9.0488352152487757
10
35.19765573474934
20
3.7536655739099278
42
0.41421356237309886
10
34.792075947076704
20
4.3328935392495049
10
21.989575157917965
20
6.5903198489195898
42
0.4142135623730967
10
21.410347192578385
20
6.1847400612469521
10
19.152920882908301
20
-6.6177607279117545
42
0.41421356237309476
10
19.558500670580941
20
-7.1969886932513294
0
LWPOLYLINE
5
154
100
AcDbEntity
8
0
100
AcDbPolyline
90
8
70
1
43
0.0
10
133.19343522633193
20
13.871844925928979
42
0.41421356237308943
10
133.77266319167151
20
14.277424713601619
10
136.03008950134159
20
27.079925502760318
42
0.41421356237307405
10
135.62450971366897
20
27.659153468099898
10
122.82200892451024
20
29.916579777769982
42
0.4142135623730967
10
122.24278095917069
20
29.510999990097343
10
119.98535464950058
20
16.708499200938643
42
0.41421356237308493
10
120.39093443717323
20
16.129271235599067
0
LWPOLYLINE
5
155
100
AcDbEntity
8
0
100
AcDbPolyline
90
8
70
1
43
0.0
10
91.537262605873039
20
-2.9628941235642108
42
0.4142135623730881
10
92.116490571212623
20
-2.5573143358915695
10
94.373916880882703
20
10.245186453267134
42
0.41421356237308493
10
93.968337093210039
20
10.824414418606709
10
81.165836304051368
20
13.081840728276797
42
0.41421356237309997
10
80.586608338711784
20
12.676260940604159
10
78.329182029041689
20
-0.12623984855455678
42
0.41421356237309126
10
78.734761816714325
20
-0.70546781389412061
0
LWPOLYLINE
5
156
100
AcDbEntity
8
0
100
AcDbPolyline
90
8
70
1
43
0.0
10
126.57743965722192
20
-23.649330463836158
42
0.41421356237309415
10
127.15666762256149
20
-23.243750676163522
10
129.41409393223159
20
-10.441249887004819
42
0.41421356237308493
10
129.00851414455894
20
-9.8620219216652458
10
116.20601335540023
20
-7.6045956119951574
42
0.41421356237308926
10
115.62678539006065
20
-8.0101753996677978
10
113.36935908039055
20
-20.812676188826494
42
0.41421356237307405
10
113.7749388680632
20
-21.391904154166074
0
LWPOLYLINE
5
157
100
AcDbEntity
8
0
100
AcDbPolyline
90
8
70
1
43
0.0
10
69.055177403366073
20
-20.760557495752082
42
0.41421356237309453
10
69.634405368705629
20
-20.354977708079446
10
71.891831678375738
20
-7.5524769189207452
42
0.41421356237310458
10
71.486251890703087
20
-6.9732489535811615
10
58.683751101544374
20
-4.7158226439110829
42
0.41421356237310114
10
58.104523136204811
20
-5.1214024315837214
10
55.847096826534717
20
-17.923903220742432
42
0.41421356237310425
10
56.25267661420736
20
-18.503131186081994
0
LWPOLYLINE
5
158
100
AcDbEntity
8
0
100
AcDbPolyline
90
8
70
1
43
0.0
10
84.921267036762998
20
-40.484069513329352
42
0.41421356237309415
10
85.500495002102568
20
-40.078489725656716
10
87.757921311772677
20
-27.275988936498003
42
0.41421356237307572
10
87.352341524100027
20
-26.696760971158429
10
74.549840734941327
20
-24.439334661488342
42
0.41421356237307616
10
73.970612769601757
20
-24.844914449160981
10
71.713186459931663
20
-37.647415238319702
42
0.41421356237309592
10
72.118766247604299
20
-38.226643203659265
0
LWPOLYLINE
5
159
100
AcDbEntity
8
0
100
AcDbPolyline
90
8
70
1
43
0.0
10
72.363175187921073
20
-1.9999698008695155
42
0.41421356237309293
10
72.942403153260656
20
-1.594390013196878
10
75.199829462930751
20
11.208110775961826
42
0.41421356237308693
10
74.794249675258101
20
11.78733874130141
10
61.991748886099387
20
14.044765050971488
42
0.41421356237309365
10
61.412520920759817
20
13.639185263298849
10
59.155094611089723
20
0.83668447414013691
42
0.41421356237310236
10
59.560674398762366
20
0.25745650880057314
0
LWPOLYLINE
5
160
100
AcDbEntity
8
0
100
AcDbPolyline
90
74
70
1
43
0.0
10
121.85172367820242
20
-64.182431167399585
42
0.36397023426619179
10
122.61494968678687
20
-63.542008505091452
10
141.26072546173438
20
42.203440660036897
42
0.41421356237308726
10
140.63207679084175
20
43.101244006313244
10
132.98092849289165
20
44.450347884643492
42
-0.41421356237308971
10
131.35860934220113
20
46.767259746001749
10
131.44977463547627
20
47.284283816333179
42
0.41421356237308971
10
129.82745548478573
20
49.60119567769145
10
94.374376376346277
20
55.852530073700919
42
0.41421356237309603
10
92.057464514987998
20
54.230210923010361
10
91.966299221712831
20
53.713186852678945
42
-0.41421356237309781
10
89.649387360354524
20
52.090867701988401
10
72.820638747285471
20
55.058230134032627
42
-0.41421356237309653
10
71.198319596594914
20
57.375141995390912
10
71.289484889870039
20
57.892166065722286
42
0.41421356237309248
10
69.667165739179481
20
60.209077927080571
10
34.214086630739978
20
66.460412323090097
42
0.41421356237309315
10
31.897174769381692
20
64.838093172399539
10
31.806009476106553
20
64.321069102068108
42
-0.4142135623730957
10
29.489097614748275
20
62.69874995137755
10
21.074723308213752
20
64.182431167399656
10
-21.074723308213752
20
64.182431167399656
10
-29.489097614748275
20
62.69874995137755
42
-0.41421356237309542
10
-31.806009476106553
20
64.321069102068108
10
-31.897174769381692
20
64.838093172399525
42
0.41421356237309753
10
-34.21408663073997
20
66.460412323090097
10
-69.667165739179481
20
60.209077927080578
42
0.41421356237308837
10
-71.289484889870039
20
57.892166065722293
10
-71.198319596594914
20
57.375141995390905
42
-0.41421356237309742
10
-72.820638747285486
20
55.05823013403262
10
-89.649387360354524
20
52.090867701988387
42
-0.41421356237309781
10
-91.966299221712831
20
53.713186852678945
10
-92.05746451498797
20
54.230210923010375
42
0.4142135623730937
10
-94.374376376346248
20
55.852530073700919
10
-129.8274554847857
20
49.60119567769145
42
0.4142135623730927
10
-131.44977463547627
20
47.284283816333179
10
-131.35860934220113
20
46.767259746001749
42
-0.41421356237309009
10
-132.98092849289165
20
44.450347884643492
10
-140.63207679084178
20
43.101244006313237
42
0.41421356237311607
10
-141.26072546173435
20
42.20344066003689
10
-122.61494968678689
20
-63.542008505091601
42
0.36397023426621328
10
-121.8517236782024
20
-64.182431167399713
10
-113.87651941927362
20
-64.182431167399727
42
-0.41421356237309509
10
-111.87651941927363
20
-66.182431167399727
10
-111.87651941927363
20
-66.707431167399591
42
0.41421356237309509
10
-109.87651941927365
20
-68.707431167399591
10
-73.87651941927362
20
-68.707431167399591
42
0.41421356237309109
10
-71.876519419273635
20
-66.707431167399591
10
-71.876519419273649
20
-66.182431167399699
42
-0.41421356237309509
10
-69.876519419273649
20
-64.182431167399699
10
-52.625506473091228
20
-64.182431167399685
42
-0.41421356237309637
10
-50.625506473091221
20
-66.182431167399685
10
-50.625506473091207
20
-66.707431167399591
42
0.41421356237309243
10
-48.625506473091207
20
-68.707431167399605
10
-12.62550647309121
20
-68.707431167399591
42
0.41421356237309409
10
-10.625506473091216
20
-66.707431167399591
10
-10.625506473091209
20
-66.182431167399656
42
-0.41421356237309509
10
-8.6255064730912068
20
-64.182431167399656
10
8.6255064730912068
20
-64.182431167399642
42
-0.41421356237309509
10
10.625506473091207
20
-66.182431167399642
10
10.625506473091209
20
-66.707431167399591
42
0.41421356237309309
10
12.62550647309121
20
-68.707431167399591
10
48.625506473091207
20
-68.707431167399591
42
0.41421356237309109
10
50.6255064730912
20
-66.707431167399591
10
50.625506473091207
20
-66.182431167399628
42
-0.41421356237309509
10
52.625506473091207
20
-64.182431167399614
10
69.876519419273635
20
-64.182431167399614
42
-0.41421356237309509
10
71.876519419273635
20
-66.182431167399614
10
71.876519419273635
20
-66.707431167399591
42
0.41421356237309109
10
73.876519419273635
20
-68.707431167399591
10
109.87651941927365
20
-68.707431167399591
42
0.41421356237309243
10
111.87651941927363
20
-66.707431167399591
10
111.87651941927363
20
-66.182431167399585
42
-0.41421356237309509
10
113.87651941927362
20
-64.182431167399585
0
ENDSEC
0
SECTION
2
OBJECTS
0
DICTIONARY
5
C
100
AcDbDictionary
3
ACAD_GROUP
350
D
3
ACAD_MLINESTYLE
350
17
0
DICTIONARY
5
D
100
AcDbDictionary
0
DICTIONARY
5
1A
330
C
100
AcDbDictionary
0
DICTIONARY
5
17
100
AcDbDictionary
0
ENDSEC
0
EOF
